<svg width="206" height="172" viewBox="0 0 206 172" fill="none" xmlns="http://www.w3.org/2000/svg">
<path d="M201.483 94.3968C195.273 87.0906 184.912 86.5337 184.848 86.632C184.14 86.5337 183.496 86.4026 182.949 86.206C182.949 86.206 182.917 86.206 182.917 86.1733C181.019 85.5508 180.118 84.5679 180.118 83.1263C187.422 76.115 188.452 64.9755 188.484 64.5496C188.773 62.0596 188.806 59.7334 188.58 57.7348C187.325 43.1224 175.388 39.7478 169.532 39.9117C169.21 39.9117 161.295 39.6823 155.6 45.2848C151.899 48.9543 150.065 54.0981 150.097 60.618C150.13 61.8302 150.194 63.1408 150.323 64.4513C150.355 64.9427 151.384 76.115 158.688 83.1263C158.592 84.0437 158.045 85.1576 155.825 85.8784H155.76C155.246 86.075 154.666 86.1733 153.991 86.3043C152.189 86.4026 141.442 87.451 135.94 95.9039C133.462 95.478 131.693 95.347 131.113 95.3142C129.665 95.0849 128.346 94.79 127.188 94.4296H127.156C124.968 93.676 123.23 91.612 121.975 88.2374C120.27 83.8143 120.045 78.7688 120.109 77.3927C120.109 77.1306 120.141 76.9013 120.173 76.6719C133.784 64.484 135.65 43.9088 135.715 43.0897C136.197 38.7977 136.262 34.8006 135.94 31.3277V31.2622C135.94 31.1966 135.94 31.0984 135.908 31.0001C133.205 -0.354305 103.217 0.432009 103.152 0.432009C102.573 0.399246 89.0267 0.00608742 79.3095 9.63846C73.0029 15.8962 69.8496 24.7751 69.9462 36.0784C69.9783 38.2735 70.1071 40.6324 70.3645 42.9914C70.4288 43.876 72.3272 64.484 85.9378 76.7047C85.9378 76.8685 85.97 76.9996 85.9378 77.1962C85.8735 81.9141 85.4873 87.9753 85.1334 89.0564C85.1334 89.0892 85.1012 89.0892 85.1012 89.122C84.0072 91.2843 81.8836 92.8897 78.6981 93.9381H78.6338C77.572 94.2985 76.3493 94.5934 74.8692 94.79C74.2578 94.8228 72.3594 94.9538 69.7531 95.4453C63.8005 86.8613 52.3779 86.2716 52.0561 86.2716C51.3483 86.1733 50.7369 86.0422 50.1899 85.8456H50.0934C48.195 85.2231 47.294 84.2402 47.294 82.7987C54.5981 75.7873 55.6277 64.6479 55.6599 64.2219C55.9495 61.7319 55.9816 59.4058 55.7564 57.4072C54.5015 42.7948 42.6606 39.3874 36.708 39.584C36.3863 39.584 28.4709 39.3547 22.8079 44.9572C19.1076 48.6267 17.2735 53.7705 17.3057 60.2904C17.3379 61.5026 17.4022 62.8131 17.5309 64.1236C17.5631 64.6151 18.5928 75.7873 25.8968 82.7987C25.8002 83.716 25.2533 84.83 23.0331 85.5508H23.0009C22.4861 85.7146 21.9069 85.8456 21.2634 85.9439C19.7511 86.0422 10.3234 86.8613 4.49952 93.7088C0.89577 97.9352 -0.552165 103.505 0.187891 110.189L1.28189 120.378C1.41059 121.558 2.15065 122.54 3.24464 122.999C3.82382 123.228 16.2439 128.143 35.968 128.143C36.6115 128.143 37.2872 128.11 37.9307 128.11C37.7698 130.862 37.802 133.745 38.156 136.76L40.1831 155.697C40.3118 156.876 41.0518 157.859 42.1458 158.318C43.5294 158.875 66.0207 167.721 101.576 167.721C119.305 167.721 140.284 165.526 163.483 159.006C164.705 158.645 165.606 157.597 165.767 156.286L167.794 137.349C168.148 134.27 168.181 131.321 167.987 128.536H168.76C179.925 128.536 191.219 126.963 202.384 123.818C203.607 123.458 204.508 122.409 204.668 121.099L205.762 110.877C206.535 104.193 205.087 98.6561 201.483 94.3968ZM156.597 63.8943C156.468 62.7148 156.404 61.6336 156.404 60.5852C156.372 55.9001 157.562 52.3289 159.976 49.9372C163.708 46.2022 169.307 46.3005 169.564 46.3332C170.787 46.3005 181.373 46.366 182.402 58.4229C182.563 60.0282 182.531 61.863 182.306 63.9926C182.306 64.0909 181.341 74.7717 174.455 79.7845C174.358 79.85 174.294 79.8827 174.197 79.9483C174.037 80.0793 173.876 80.1776 173.715 80.2759C171.044 81.9468 167.859 81.9468 165.188 80.2759C165.027 80.1776 164.866 80.0466 164.705 79.9483C164.609 79.8827 164.545 79.8172 164.448 79.7845C164.223 79.6206 164.03 79.4568 163.837 79.293C157.53 74.0509 156.597 64.0254 156.597 63.8943ZM121.911 98.7543L114.575 111.63L107.432 104.226L118.082 94.5279C119.208 96.2643 120.495 97.6731 121.911 98.7543ZM103.056 108.747L107.464 113.334L103.281 118.052C103.184 118.15 103.12 118.248 103.023 118.379C102.948 118.262 102.861 118.153 102.766 118.052L98.8083 113.629L103.056 108.747ZM91.3756 89.3513C91.7617 87.0579 91.9548 83.8799 92.0513 81.0294C95.5264 82.8642 99.2588 83.8143 103.023 83.8143C106.82 83.8143 110.585 82.8314 114.028 80.9639C114.221 83.1263 114.671 85.7474 115.444 88.4012L102.895 99.8028L91.3756 89.3513ZM103.023 123.359L107.882 148.423L103.023 152.224L98.1326 148.423L103.023 123.359ZM83.5889 14.2253C91.3434 6.4932 102.798 6.7553 103.152 6.78807C104.085 6.7553 125.515 6.26386 129.279 28.5428C114.285 29.624 94.6576 19.1398 94.4324 19.0415C93.92 18.7655 93.343 18.6379 92.7644 18.6726C92.1857 18.7073 91.6275 18.9028 91.1504 19.2381L76.5423 29.6568C77.4111 23.2352 79.76 18.0586 83.5889 14.2253ZM76.5423 42.3689C76.3814 40.7307 76.2849 39.1581 76.2206 37.651L93.2097 25.5614C98.6153 28.248 115.54 35.9473 129.826 34.8661C129.891 37.2251 129.826 39.6823 129.505 42.4344C129.472 42.6638 127.542 63.8615 113.706 73.8216C113.587 73.8788 113.478 73.9564 113.384 74.0509C113.049 74.3022 112.705 74.5426 112.355 74.7717C106.531 78.4412 99.5806 78.4412 93.7245 74.7717C93.3705 74.5423 93.0166 74.313 92.6627 74.0509C92.5661 73.9526 92.4374 73.8871 92.3087 73.8216C91.8261 73.4612 91.3434 73.1008 90.893 72.7076C78.3764 62.3217 76.5745 42.631 76.5423 42.3689ZM88.4476 95.1831L98.5509 104.357L92.3409 111.532L84.2646 98.3939C85.8735 97.5093 87.2892 96.4609 88.4476 95.1831ZM23.7731 63.4684C23.6444 62.3217 23.5801 61.2077 23.5801 60.1593C23.5479 55.4742 24.7384 51.903 27.1517 49.5113C30.8841 45.7763 36.515 45.9073 36.7402 45.9073C37.2228 45.9073 48.5167 45.6124 49.5786 57.9969C49.7394 59.5696 49.7073 61.4043 49.482 63.5339C49.482 63.6322 48.4524 74.3458 41.5988 79.3585C41.5023 79.4241 41.4379 79.4568 41.3414 79.5223C41.1805 79.6534 41.0197 79.7517 40.8588 79.85C38.1881 81.5209 35.0027 81.5209 32.332 79.85C32.1712 79.7517 32.0103 79.6206 31.8494 79.5223C31.7529 79.4568 31.6885 79.3913 31.592 79.3585C31.3668 79.1947 31.1737 79.0309 30.9485 78.8671C24.7063 73.6577 23.7731 63.6322 23.7731 63.4684ZM38.9282 121.721C23.0331 122.147 11.514 119.035 7.33104 117.659L6.46228 109.468C5.91528 104.619 6.88057 100.72 9.26161 97.8697C13.6698 92.6604 21.6495 92.2672 21.7139 92.2672C21.8104 92.2672 21.9391 92.2672 22.0356 92.2345C23.0653 92.1034 24.0627 91.8741 24.9637 91.5792C24.9958 91.5792 24.9958 91.5464 25.028 91.5464C28.5996 90.367 30.3693 88.3029 31.3024 86.3699C34.6788 87.7956 38.4713 87.8074 41.8562 86.4026C42.9502 88.8926 45.1382 90.8256 48.2272 91.8413H48.2915C49.1924 92.1362 50.1577 92.3655 51.5413 92.5621C51.6378 92.5621 58.4592 92.9225 62.9961 97.1162C57.3009 98.9837 50.6726 102.293 45.6209 108.256C42.3067 112.122 40.1187 116.643 38.9282 121.721ZM161.649 136.629L159.847 153.436C100.321 169.588 55.4668 156.188 46.2322 153.043L44.3982 136.072C43.3363 126.308 45.2991 118.347 50.2543 112.482C55.5955 106.159 63.4144 103.374 68.8844 102.129C68.9487 102.129 68.9809 102.096 69.0452 102.096C72.649 101.277 75.2231 101.146 75.2874 101.146C75.384 101.146 75.5127 101.146 75.6092 101.113C76.5423 100.982 77.4111 100.818 78.2155 100.622L89.2198 118.543C89.7346 119.395 90.6356 119.952 91.6008 120.018H91.8583C92.7592 120.018 93.5958 119.624 94.2071 118.936L94.6576 118.412L97.0708 121.132L91.6008 149.144C91.3756 150.324 91.8261 151.569 92.7592 152.289L101.093 158.744C101.64 159.17 102.316 159.399 102.991 159.399C103.667 159.399 104.343 159.17 104.89 158.744L113.191 152.289C114.124 151.569 114.575 150.324 114.35 149.144L108.912 121.132L111.808 117.855L112.966 119.068C113.545 119.69 114.35 120.018 115.186 120.018C115.315 120.018 115.444 120.018 115.572 119.985C116.538 119.854 117.406 119.297 117.889 118.445L127.735 101.212C128.604 101.408 129.472 101.572 130.405 101.703C130.502 101.703 130.631 101.736 130.727 101.736C130.888 101.736 146.719 102.424 155.728 113.039C160.716 118.904 162.711 126.832 161.649 136.629ZM199.617 110.189L198.748 118.248C188.226 121.001 177.576 122.246 167.087 122.082C165.896 117.069 163.708 112.646 160.49 108.845C155.342 102.751 148.521 99.4096 142.761 97.5749C147.266 93.0535 154.473 92.6604 154.538 92.6604C154.666 92.6604 154.827 92.6276 154.956 92.6276C155.857 92.4638 156.79 92.2672 157.723 91.9724H157.788C157.82 91.9724 157.82 91.9396 157.852 91.9396H157.916C161.456 90.7601 163.225 88.7288 164.126 86.7958C167.503 88.2215 171.295 88.2333 174.68 86.8285C175.774 89.3185 177.93 91.2188 180.987 92.2672C181.019 92.2672 181.051 92.3 181.083 92.3328C182.016 92.6276 183.014 92.8242 184.365 93.0208C184.43 93.0208 192.409 93.4467 196.785 98.6233C199.166 101.408 200.132 105.307 199.617 110.189Z" fill="#202B66"/>
</svg>
