<svg width="101" height="126" viewBox="0 0 101 126" fill="none" xmlns="http://www.w3.org/2000/svg">
<path d="M99.706 52.25L90.0558 51.0912C89.0455 45.9425 87.3843 41.0269 85.1344 36.5286L91.2821 27.2792C91.5084 26.9387 91.6252 26.5056 91.6097 26.064C91.5942 25.6223 91.4476 25.2036 91.1983 24.889L81.1658 12.2288C80.9143 11.9114 80.5765 11.723 80.2189 11.7007C79.8614 11.6784 79.5102 11.8238 79.2345 12.1083L71.8004 19.7788C68.1862 16.9903 64.2464 14.9179 60.1218 13.6356L59.1917 1.61221C59.1576 1.17092 58.9928 0.761277 58.7294 0.4632C58.466 0.165122 58.1229 -1.48374e-05 57.7671 9.99891e-10H43.3615C43.0057 -1.48374e-05 42.6626 0.165122 42.3992 0.4632C42.1358 0.761277 41.971 1.17092 41.9369 1.61221L41.0068 13.6356C36.8744 14.8946 32.929 16.9646 29.3186 19.7681L21.8949 12.1085C21.6204 11.8253 21.271 11.6798 20.915 11.7006C20.559 11.7213 20.222 11.9069 19.97 12.2209L9.80865 24.8811C9.55664 25.1951 9.40773 25.615 9.39106 26.0585C9.37438 26.5021 9.49114 26.9375 9.71849 27.2794L15.8748 36.5416C13.6367 41.0446 11.9734 45.9533 10.9442 51.0922L1.29399 52.251C0.939831 52.2935 0.611077 52.4988 0.37184 52.8269C0.132604 53.1551 3.89203e-05 53.5824 8.02529e-10 54.0257V71.974C-1.19087e-05 72.4174 0.13253 72.8448 0.371771 73.173C0.611013 73.5011 0.939796 73.7065 1.29399 73.749L10.9442 74.9078C11.9544 80.0567 13.6156 84.9726 15.8656 89.4712L9.71788 98.7206C9.49053 99.0625 9.37376 99.4979 9.39044 99.9415C9.40712 100.385 9.55603 100.805 9.80804 101.119L19.9694 113.779C20.2214 114.093 20.5584 114.279 20.9144 114.299C21.2704 114.32 21.6198 114.175 21.8943 113.891L29.3282 106.221C32.9424 109.01 36.8822 111.082 41.0068 112.364L41.9369 124.388C41.971 124.829 42.1358 125.239 42.3992 125.537C42.6626 125.835 43.0057 126 43.3615 126H57.7671C58.1229 126 58.466 125.835 58.7294 125.537C58.9928 125.239 59.1576 124.829 59.1917 124.388L59.8783 115.511C62.0639 118.417 64.705 120.732 67.6381 122.314C70.5711 123.896 73.7337 124.71 76.9297 124.707C89.7919 124.707 100.256 111.7 100.256 95.7111C100.257 91.752 99.6043 87.835 98.3391 84.2032C97.074 80.5714 95.2232 77.3024 92.9016 74.5991L99.712 73.7495C100.065 73.7053 100.392 73.4993 100.63 73.1715C100.868 72.8436 101 72.4173 101 71.9753V54.026C101 53.5825 100.868 53.1548 100.629 52.8264C100.389 52.498 100.06 52.2925 99.706 52.25ZM97.3926 95.7106C97.3926 109.733 88.2127 121.14 76.9287 121.14C73.6255 121.143 70.3709 120.15 67.4422 118.247C64.5136 116.343 61.9978 113.586 60.1093 110.209C60.0355 109.997 59.9293 109.804 59.7965 109.642C58.3158 106.834 57.2997 103.685 56.808 100.382C56.5788 98.8411 56.4635 97.2775 56.4637 95.7106C56.4661 92.3663 56.9974 89.0554 58.0273 85.9671C59.0572 82.8788 60.5655 80.0736 62.466 77.712C64.3665 75.3503 66.6219 73.4784 69.1033 72.2033C71.5847 70.9281 74.2435 70.2748 76.9277 70.2805C88.2127 70.2808 97.3926 81.6885 97.3926 95.7106ZM53.769 99.1798C53.1863 99.2588 52.601 99.3163 52.0132 99.3523V94.117H49.1508V99.3587C47.2276 99.2444 45.3183 98.8927 43.4509 98.3087L43.2071 88.0857H54.4173C53.6314 91.6976 53.4113 95.4642 53.769 99.1798ZM79.6142 66.9076C75.7184 66.3478 71.7721 67.0083 68.1331 68.8293V63.5271C68.2375 62.1132 68.1041 60.6877 67.7415 59.3417C67.3788 57.9957 66.7949 56.7587 66.0269 55.7097C65.2589 54.6608 64.3238 53.8228 63.2813 53.2495C62.2387 52.6762 61.1117 52.38 59.9721 52.3799H56.5439C56.1799 52.3802 55.8297 52.5533 55.5645 52.8639L50.5818 58.6881L45.7937 52.885C45.5265 52.5612 45.1685 52.3801 44.7958 52.3801H41.1581C40.0184 52.38 38.8912 52.676 37.8485 53.2492C36.8058 53.8224 35.8704 54.6603 35.1023 55.7093C34.3341 56.7583 33.75 57.9954 33.3872 59.3415C33.0244 60.6877 32.8909 62.1133 32.9953 63.5273V85.831C32.9957 87.4901 33.5248 89.0811 34.4663 90.2543C35.4078 91.4276 36.6847 92.0871 38.0163 92.0878H38.0754C38.8973 92.0761 39.7036 91.8068 40.42 91.3047L40.5607 97.2039C34.9328 94.6391 30.0725 89.9837 26.6364 83.8667C23.2004 77.7497 21.3542 70.466 21.3474 62.9997C21.3474 42.9267 34.4529 26.5983 50.5638 26.5983C66.6747 26.5983 79.7802 42.928 79.7802 62.9997C79.7804 64.3051 79.7249 65.6096 79.6142 66.9076ZM58.0811 71.6862V78.6333C57.0058 80.4582 56.1061 82.4341 55.4005 84.5204H43.1221L43.0608 81.9767H43.0403V71.6862H40.178V85.706C40.1888 86.4303 39.9712 87.1311 39.5719 87.6577C39.1725 88.1843 38.6233 88.4947 38.0422 88.5223C37.7566 88.5263 37.4731 88.4597 37.2083 88.3263C36.9434 88.1929 36.7024 87.9954 36.4992 87.7452C36.296 87.495 36.1346 87.1971 36.0244 86.8687C35.9142 86.5403 35.8574 86.188 35.8573 85.832V63.4412C35.8573 63.381 35.8548 63.3209 35.8499 63.2611C35.7748 62.3366 35.8561 61.4027 36.0887 60.5197C36.3212 59.6368 36.6998 58.8244 37.2 58.1351C37.7001 57.4458 38.3108 56.8948 38.9924 56.5177C39.6741 56.1406 40.4117 55.9458 41.1575 55.9459H44.2141L49.5595 62.423C49.8229 62.747 50.1768 62.9313 50.5469 62.9371C50.917 62.9429 51.2745 62.7699 51.5443 62.4544L57.111 55.9459H59.9733C60.7191 55.946 61.4565 56.1409 62.138 56.5181C62.8195 56.8952 63.43 57.4463 63.93 58.1356C64.43 58.8249 64.8084 59.6373 65.0409 60.5201C65.2733 61.403 65.3545 62.3367 65.2793 63.2611C65.2744 63.3209 65.272 63.381 65.272 63.4412V70.5653C63.7087 71.6892 62.2563 73.0371 60.9445 74.5815V71.6862H58.0811ZM98.1376 70.3616L89.6528 71.421C87.4424 69.6241 85.0023 68.3096 82.4375 67.534C82.5743 66.0286 82.6431 64.5148 82.6436 62.9997C82.6436 40.9612 68.2529 23.032 50.5648 23.032C32.8767 23.032 18.4852 40.9612 18.4852 62.9997C18.4852 85.0383 32.8759 102.967 50.564 102.967C51.8074 102.967 53.0498 102.878 54.285 102.7C54.8999 105.8 55.9247 108.751 57.3173 111.432L56.4664 122.432H44.6616L43.7573 110.744C43.7282 110.367 43.6038 110.012 43.4021 109.73C43.2004 109.447 42.9319 109.252 42.6353 109.172C38.1327 107.925 33.8484 105.674 29.9894 102.526C29.7338 102.32 29.4323 102.222 29.1286 102.244C28.825 102.267 28.5349 102.409 28.3007 102.651L21.0724 110.109L12.7538 99.7448L18.7396 90.7403C18.936 90.4448 19.0506 90.0784 19.0666 89.6953C19.0825 89.3122 18.9989 88.9329 18.8281 88.6137C16.2855 83.8263 14.4805 78.491 13.5054 72.8804C13.4412 72.5108 13.2845 72.1762 13.0577 71.9249C12.831 71.6737 12.546 71.5187 12.2439 71.4824L2.86235 70.3544V55.6453L12.2439 54.5186C12.546 54.4823 12.831 54.3274 13.0577 54.0761C13.2845 53.8248 13.4412 53.4902 13.5054 53.1207C14.5061 47.5108 16.3133 42.1729 18.8398 37.3649C19.0047 37.0464 19.0839 36.6707 19.0658 36.2924C19.0478 35.914 18.9334 35.5527 18.7394 35.2608L12.7538 26.2547L21.0722 15.8906L28.3004 23.3484C28.5376 23.5931 28.8317 23.7359 29.1392 23.7558C29.4466 23.7757 29.7511 23.6715 30.0072 23.4587C33.8497 20.2908 38.1319 18.0419 42.6351 16.827C42.9317 16.747 43.2002 16.5517 43.4019 16.2692C43.6036 15.9867 43.728 15.6316 43.7571 15.2552L44.6614 3.56653H56.4672L57.3715 15.2552C57.4006 15.6316 57.525 15.9867 57.7267 16.2692C57.9284 16.5517 58.1969 16.747 58.4935 16.827C62.9961 18.0738 67.2805 20.3255 71.1396 23.4732C71.3952 23.6787 71.6967 23.7773 72.0004 23.7549C72.3041 23.7324 72.5941 23.5899 72.8284 23.3481L80.0501 15.8969L88.2517 26.2465L82.2612 35.2603C82.0648 35.5557 81.9502 35.9221 81.9342 36.3052C81.9183 36.6883 82.0019 37.0676 82.1727 37.3868C84.7153 42.1742 86.5203 47.5096 87.4954 53.1201C87.5596 53.4897 87.7164 53.8243 87.9431 54.0756C88.1699 54.3269 88.4549 54.4818 88.7569 54.5181L98.1376 55.6451V70.3616Z" fill="#202B66"/>
<path d="M81.4291 84.32C81.0126 84.32 80.6131 84.5341 80.3185 84.9151C80.024 85.2962 79.8585 85.8131 79.8585 86.3521V102.613L73.7385 110.531C73.444 110.912 73.2785 111.429 73.2785 111.968C73.2785 112.507 73.444 113.024 73.7385 113.405C74.0331 113.786 74.4326 114 74.8492 114C75.2658 114 75.6653 113.786 75.9599 113.405L82.54 104.891C82.6859 104.703 82.8016 104.479 82.8805 104.232C82.9594 103.986 83 103.721 83 103.454V86.3518C83 86.0849 82.9593 85.8207 82.8804 85.5741C82.8014 85.3276 82.6857 85.1036 82.5398 84.9149C82.3939 84.7263 82.2208 84.5766 82.0302 84.4745C81.8396 84.3724 81.6354 84.3199 81.4291 84.32ZM51.7164 27C49.4055 27.0034 47.19 28.1926 45.5559 30.3068C43.9218 32.4209 43.0026 35.2874 43 38.2773V41.9754C43 44.9663 43.9183 47.8347 45.553 49.9496C47.1876 52.0645 49.4047 53.2527 51.7164 53.2527C54.0282 53.2527 56.2452 52.0645 57.8799 49.9496C59.5145 47.8347 60.4329 44.9663 60.4329 41.9754V38.2773C60.4303 35.2874 59.5111 32.4209 57.877 30.3068C56.2429 28.1926 54.0274 27.0034 51.7164 27ZM57.2916 41.9754C57.2899 43.8878 56.702 45.7212 55.6568 47.0734C54.6116 48.4257 53.1946 49.1863 51.7164 49.1885C50.2383 49.1863 48.8212 48.4257 47.7761 47.0734C46.7309 45.7212 46.143 43.8878 46.1413 41.9754V38.2773C46.1413 36.3642 46.7287 34.5296 47.7742 33.1769C48.8198 31.8241 50.2378 31.0642 51.7164 31.0642C53.1951 31.0642 54.6131 31.8241 55.6587 33.1769C56.7042 34.5296 57.2916 36.3642 57.2916 38.2773V41.9754Z" fill="#202B66"/>
</svg>
