<svg width="136" height="124" viewBox="0 0 136 124" fill="none" xmlns="http://www.w3.org/2000/svg">
<path d="M60.1029 29.0231V26.6507C60.1029 24.7528 63.2619 24.7528 63.2619 26.6507V29.0231C63.2619 30.9211 60.1029 30.9211 60.1029 29.0231ZM64.6278 37.6428C68.3843 39.1455 71.5432 37.722 71.714 37.6428C73.6777 37.0102 72.5677 34.2422 70.6042 34.8748C70.2628 34.954 68.4698 35.982 65.8234 34.8748C63.9449 34.1632 62.7496 36.852 64.6278 37.6428ZM82.5562 94.2653C82.5562 101.857 75.8971 108.105 67.6157 108.105C59.4199 108.105 52.6753 101.936 52.6753 94.2653C52.6753 86.6735 59.3344 80.426 67.6157 80.426C75.8971 80.426 82.6417 86.5943 82.5562 94.2653ZM79.3975 94.2653C79.3975 88.2551 74.1044 83.3521 67.616 83.3521C61.1277 83.3521 55.8346 88.2551 55.8346 94.2653C55.8346 100.275 61.1277 105.178 67.616 105.178C74.1896 105.178 79.4827 100.275 79.3975 94.2653ZM136 119.809V122.577C136 123.367 135.317 124 134.463 124H90.1545H45.8458H1.53671C0.682984 124 0 123.367 0 122.577V119.809C0 114.352 4.78089 110.003 10.5863 110.003H33.2103V104.546C23.6485 112.375 8.36656 106.048 8.36656 94.1861C8.36656 82.3239 23.6485 75.9975 33.2103 83.8263V72.5176C33.2103 71.7268 33.8932 71.0942 34.747 71.0942H41.9183V54.0127C41.9183 47.2907 47.8092 41.8342 55.0658 41.8342H57.0295C53.8708 39.62 51.6508 36.2986 51.1386 32.5027H48.1504C44.8207 32.5027 42.0888 30.0513 42.0888 26.967C42.1743 26.4925 41.0643 21.2732 46.5282 19.9287V17.0025C46.5282 7.59177 54.8095 0 64.8835 0H71.0304C81.1899 0 89.3857 7.67099 89.3857 17.0025V19.9287C94.7644 21.2729 93.7399 26.6507 93.8251 26.967C93.8251 30.0513 91.0932 32.5027 87.7635 32.5027H84.7753C84.1775 36.2986 82.0433 39.62 78.8844 41.8342H80.8481C88.105 41.8342 93.9955 47.291 93.9955 54.0127V71.0942H101.252C102.106 71.0942 102.789 71.7268 102.789 72.5176V83.3518C112.692 76.2346 126.95 82.7984 126.95 94.265C126.95 105.811 112.607 112.217 102.789 105.178V110.081H125.413C131.219 110.081 136 114.51 136 119.809ZM111.925 105.178C118.413 105.178 123.706 100.275 123.706 94.2653C123.706 83.7474 109.193 79.3189 102.448 87.7807C96.7281 94.8187 102.192 105.178 111.925 105.178ZM76.4948 44.6811C79.056 50.2168 80.166 50.8494 79.3975 52.0358C78.6293 53.2222 77.5193 52.5103 71.2017 52.7477L73.5069 71.0155H81.7883V62.3955C81.7883 60.4976 84.9472 60.4976 84.9472 62.3955V71.0155H90.8381V54.0127C90.8381 48.9515 86.3987 44.7601 80.8493 44.7601L76.4948 44.6811ZM71.3722 45.0767V44.7604C71.4577 44.7604 69.8354 44.7604 69.7502 44.7604C70.0062 44.7604 65.7375 44.7604 64.7986 44.7604V45.0767C64.7986 46.7372 66.2498 48.0818 68.0428 48.0818C69.8354 48.0818 71.2869 46.7372 71.3722 45.0767ZM67.872 51.7195L65.396 71.0152H70.3477L67.872 51.7195ZM75.6408 49.8215L74.1041 46.7372C73.7626 48.0025 72.9089 49.0307 71.7989 49.8215H75.6408ZM85.2029 24.1201L84.9469 25.3854V29.5768H87.7644C89.3866 29.5768 90.6671 28.3905 90.6671 26.967V25.2272C90.6668 22.4593 86.5689 21.5895 85.2029 24.1201ZM50.9682 25.2272C50.9682 21.7477 45.248 21.7477 45.248 25.2272V26.967C45.248 28.3905 46.5288 29.5768 48.1507 29.5768H50.9682V25.2272ZM52.4193 21.3521L64.2008 13.6022C67.6157 11.3879 68.0428 23.0919 82.1292 23.8038C82.7269 21.7477 84.6051 20.3242 86.3126 19.929V17.0028C86.3126 9.25289 79.4827 2.92642 71.1162 2.92642H64.9693C56.6028 2.92642 49.7729 9.25289 49.7729 17.0028V19.8497C50.4556 20.0868 51.6511 20.6403 52.4193 21.3521ZM63.4326 41.5179C65.3963 41.9924 66.9331 41.755 69.5795 41.8342C76.1534 41.8342 81.7024 36.9312 81.7024 30.6047V26.7296C79.3975 26.6507 77.1775 26.2551 75.1289 25.5433C76.2386 26.2551 75.6411 27.2041 75.8119 29.0228C75.8119 30.9208 72.6529 30.9208 72.6529 29.0228V26.6504C72.6529 25.7804 73.4214 25.0688 74.5311 25.227C67.7013 22.5382 65.3108 17.556 64.6278 16.7652L54.1268 23.6453V25.227V30.5252C54.1268 35.8241 57.9687 40.3316 63.4326 41.5179ZM61.9811 46.9743L60.5296 49.8213H64.2008C63.1763 49.1097 62.3226 48.1607 61.9811 46.9743ZM44.992 71.0152H50.8829V62.3953C50.8829 60.4973 54.0419 60.4973 54.0419 62.3953V71.0152H62.1525L64.5429 52.7474H57.9691C56.7738 52.7474 56.0053 51.6403 56.5176 50.6913L59.5058 44.7601H55.0664C49.6025 44.7601 45.0776 48.8723 45.0776 54.0127L44.992 71.0152ZM33.381 99.9591C38.2474 92.8418 32.5273 83.3521 23.307 83.3521C16.8186 83.3521 11.5255 88.2551 11.5255 94.2653C11.5255 105.257 27.2341 109.37 33.381 99.9591ZM44.3088 119.888C44.3088 116.645 41.8331 113.798 38.3326 113.165C37.3937 112.928 39.1012 113.007 10.5863 113.007C6.48835 113.007 3.15865 116.092 3.15865 119.888V121.153H44.3088V119.888ZM88.5323 119.888C88.5323 116.092 85.2026 113.007 81.1047 113.007H54.8095C50.7116 113.007 47.3819 116.092 47.3819 119.888V121.153H88.532L88.5323 119.888ZM99.7163 110.002V102.015C96.1306 97.3493 96.3014 90.9436 99.7163 86.3569V73.9411H72.3114C72.2262 73.9411 72.2262 73.9411 72.2262 73.9411H63.6889C63.6034 73.9411 63.6034 73.9411 63.6034 73.9411H36.3692V87.3848C38.9304 91.497 39.0156 96.8745 36.3692 101.066V110.081C36.7107 110.081 37.7352 110.002 38.9304 110.239C41.8331 110.793 44.3091 112.454 45.8458 114.747C47.724 111.979 50.9682 110.081 54.8101 110.081H81.105C84.9469 110.081 88.2763 111.979 90.2401 114.747C93.6547 109.528 99.6311 110.002 99.7163 110.002ZM132.841 119.888C132.841 116.092 129.512 113.007 125.414 113.007C113.547 113.007 106.717 113.007 99.1189 113.007C95.0209 113.007 91.6912 116.092 91.6912 119.888V121.153H132.841V119.888ZM4.26865 44.6019V30.2884C4.26865 28.0741 6.23238 26.3344 8.5373 26.3344H35.6007C37.9911 26.3344 39.8694 28.1531 39.8694 30.2884V44.6022C39.8694 46.8165 37.9059 48.5562 35.6007 48.5562H26.3804C26.2952 50.5334 27.0634 53.064 24.8437 53.064C23.99 53.064 24.2459 52.8269 17.1601 48.5562H8.5373C6.23238 48.5562 4.26865 46.8165 4.26865 44.6019ZM7.42761 44.523C7.42761 45.0767 7.93985 45.5509 8.5373 45.5509C21.0018 46.0254 15.5379 44.1274 23.307 48.7934V47.0536C23.307 46.2628 23.99 45.6301 24.8437 45.6301H35.6007C36.1982 45.6301 36.7104 45.1556 36.7104 44.6022V30.2884C36.7104 29.7347 36.1982 29.2605 35.6007 29.2605H8.5373C7.93954 29.2605 7.42761 29.735 7.42761 30.2884V44.523ZM12.2937 40.4108C15.3671 40.4108 15.3671 36.1404 12.2937 36.1404C9.22029 36.1404 9.22029 40.4108 12.2937 40.4108ZM21.6847 40.4108C24.7582 40.4108 24.7582 36.1404 21.6847 36.1404C18.6113 36.1404 18.6113 40.4108 21.6847 40.4108ZM33.4665 38.2754C33.4665 37.0891 32.4421 36.1404 31.1613 36.1404C29.8806 36.1404 28.8561 37.0894 28.8561 38.2754C28.8564 41.1224 33.4665 41.1224 33.4665 38.2754Z" fill="#202B66"/>
</svg>
