<svg width="212" height="33" viewBox="0 0 212 33" fill="none" xmlns="http://www.w3.org/2000/svg">
<g opacity="0.999993">
<path d="M19.7828 0L25.896 10.8629L39.5656 12.6049L29.6742 21.0605L32.0092 33L19.7828 27.3629L7.55635 33L9.89139 21.0605L0 12.6049L13.6696 10.8629L19.7828 0Z" fill="#FFA200"/>
</g>
<path d="M62.2789 0L68.3921 10.8629L82.0617 12.6049L72.1703 21.0605L74.5053 33L62.2789 27.3629L50.0524 33L52.3875 21.0605L42.4961 12.6049L56.1657 10.8629L62.2789 0Z" fill="#FFA200"/>
<path d="M104.775 0L110.888 10.8629L124.558 12.6049L114.666 21.0605L117.001 33L104.775 27.3629L92.5485 33L94.8836 21.0605L84.9922 12.6049L98.6618 10.8629L104.775 0Z" fill="#FFA200"/>
<path d="M147.272 0L153.107 10.8629L166.157 12.6049L156.714 21.0605L158.943 33L147.272 27.3629L135.6 33L137.829 21.0605L128.387 12.6049L141.436 10.8629L147.272 0Z" fill="#FFA200"/>
<path d="M192.216 0L198.33 10.8629L211.999 12.6049L202.108 21.0605L204.443 33L192.216 27.3629L179.99 33L182.325 21.0605L172.434 12.6049L186.103 10.8629L192.216 0Z" fill="#FFA200"/>
</svg>
