<svg width="82" height="90" viewBox="0 0 82 90" fill="none" xmlns="http://www.w3.org/2000/svg">
<path d="M29.0881 48.9044L48.2178 32.841C48.532 32.5745 48.9058 32.363 49.3177 32.2187C49.7296 32.0743 50.1713 32 50.6175 32C51.0637 32 51.5054 32.0743 51.9173 32.2187C52.3292 32.363 52.703 32.5745 53.0172 32.841C53.6467 33.3737 54 34.0942 54 34.8453C54 35.5964 53.6467 36.317 53.0172 36.8497L36.2871 51.0651L53.0172 65.1383C53.6467 65.671 54 66.3916 54 67.1427C54 67.8938 53.6467 68.6144 53.0172 69.1471C52.7042 69.4157 52.3309 69.6294 51.919 69.7758C51.507 69.9222 51.0647 69.9984 50.6175 70C50.1703 69.9984 49.728 69.9222 49.3161 69.7758C48.9041 69.6294 48.5309 69.4157 48.2178 69.1471L29.0881 53.0837C28.745 52.8175 28.4712 52.4943 28.2839 52.1347C28.0967 51.775 28 51.3867 28 50.994C28 50.6014 28.0967 50.213 28.2839 49.8534C28.4712 49.4937 28.745 49.1706 29.0881 48.9044Z" fill="url(#paint0_linear_200_308)"/>
<defs>
<linearGradient id="paint0_linear_200_308" x1="41" y1="32" x2="41" y2="70" gradientUnits="userSpaceOnUse">
<stop stop-color="#08062E"/>
<stop offset="0.401119" stop-color="#121244"/>
<stop offset="1" stop-color="#5F438F"/>
</linearGradient>
</defs>
</svg>
