<svg width="82" height="90" viewBox="0 0 82 90" fill="none" xmlns="http://www.w3.org/2000/svg">
<path d="M52.9119 48.9044L33.7822 32.841C33.468 32.5745 33.0942 32.363 32.6823 32.2187C32.2704 32.0743 31.8287 32 31.3825 32C30.9363 32 30.4946 32.0743 30.0827 32.2187C29.6708 32.363 29.297 32.5745 28.9828 32.841C28.3533 33.3737 28 34.0942 28 34.8453C28 35.5964 28.3533 36.317 28.9828 36.8497L45.7129 51.0651L28.9828 65.1383C28.3533 65.671 28 66.3916 28 67.1427C28 67.8938 28.3533 68.6144 28.9828 69.1471C29.2958 69.4157 29.6691 69.6294 30.081 69.7758C30.493 69.9222 30.9353 69.9984 31.3825 70C31.8297 69.9984 32.272 69.9222 32.6839 69.7758C33.0959 69.6294 33.4691 69.4157 33.7822 69.1471L52.9119 53.0837C53.255 52.8175 53.5288 52.4943 53.7161 52.1347C53.9033 51.775 54 51.3867 54 50.994C54 50.6014 53.9033 50.213 53.7161 49.8534C53.5288 49.4937 53.255 49.1706 52.9119 48.9044Z" fill="url(#paint0_linear_200_306)"/>
<defs>
<linearGradient id="paint0_linear_200_306" x1="41" y1="32" x2="41" y2="70" gradientUnits="userSpaceOnUse">
<stop stop-color="#08062E"/>
<stop offset="0.401119" stop-color="#121244"/>
<stop offset="1" stop-color="#5F438F"/>
</linearGradient>
</defs>
</svg>
